<svg width="25" height="25" viewBox="0 0 25 25" fill="none" xmlns="http://www.w3.org/2000/svg">
<path d="M9.37501 11.4584C10.5256 11.4584 11.4583 10.5256 11.4583 9.37502C11.4583 8.22443 10.5256 7.29169 9.37501 7.29169C8.22441 7.29169 7.29167 8.22443 7.29167 9.37502C7.29167 10.5256 8.22441 11.4584 9.37501 11.4584Z" stroke="#4D7B9F" stroke-width="2"/>
<path d="M13.5417 15.625C13.5417 16.7756 13.5417 17.7084 9.37499 17.7084C5.20833 17.7084 5.20833 16.7756 5.20833 15.625C5.20833 14.4744 7.07381 13.5417 9.37499 13.5417C11.6761 13.5417 13.5417 14.4744 13.5417 15.625Z" stroke="#4D7B9F" stroke-width="2"/>
<path d="M2.08333 12.5C2.08333 8.57165 2.08333 6.60747 3.30371 5.38707C4.52411 4.16669 6.48829 4.16669 10.4167 4.16669H14.5833C18.5117 4.16669 20.4759 4.16669 21.6962 5.38707C22.9167 6.60747 22.9167 8.57165 22.9167 12.5C22.9167 16.4284 22.9167 18.3926 21.6962 19.6129C20.4759 20.8334 18.5117 20.8334 14.5833 20.8334H10.4167C6.48829 20.8334 4.52411 20.8334 3.30371 19.6129C2.08333 18.3926 2.08333 16.4284 2.08333 12.5Z" stroke="#4D7B9F" stroke-width="2"/>
<path d="M19.7917 12.5H15.625" stroke="#4D7B9F" stroke-width="2" stroke-linecap="round"/>
<path d="M19.7917 9.375H14.5833" stroke="#4D7B9F" stroke-width="2" stroke-linecap="round"/>
<path d="M19.7917 15.625H16.6667" stroke="#4D7B9F" stroke-width="2" stroke-linecap="round"/>
</svg>
