<svg width="25" height="21" viewBox="0 0 25 21" fill="none" xmlns="http://www.w3.org/2000/svg">
<path d="M24.9355 3.48217C24.8228 2.9145 24.571 2.39501 24.2195 1.96586C24.1454 1.87236 24.068 1.78862 23.984 1.70488C23.3612 1.079 22.4871 0.688568 21.5322 0.688568H3.46782C2.51289 0.688568 1.64189 1.079 1.01616 1.70488C0.932422 1.78862 0.854981 1.87236 0.780664 1.96586C0.428955 2.39497 0.177246 2.9145 0.0676758 3.48217C0.0226563 3.70126 0 3.92768 0 4.15659V16.8437C0 17.3305 0.103223 17.7983 0.287305 18.2208C0.458057 18.6242 0.709815 18.9891 1.01611 19.2951C1.09375 19.3726 1.17085 19.4438 1.25498 19.5146C1.85488 20.0114 2.62925 20.3114 3.46782 20.3114H21.5322C22.371 20.3114 23.1488 20.0114 23.7452 19.5114C23.8291 19.4437 23.9066 19.3726 23.984 19.2951C24.2902 18.9891 24.5419 18.6242 24.7162 18.2208V18.2177C24.9002 17.7952 25 17.3305 25 16.8438V4.15659C25 3.92768 24.9777 3.70126 24.9355 3.48217ZM2.27095 2.95952C2.58076 2.65004 2.99683 2.46269 3.46782 2.46269H21.5322C22.0032 2.46269 22.4229 2.65004 22.7291 2.95952C22.7838 3.01464 22.8355 3.07607 22.881 3.1371L13.4129 11.3888C13.1518 11.6177 12.8292 11.7307 12.5 11.7307C12.1741 11.7307 11.8518 11.6177 11.5872 11.3888L2.12266 3.13359C2.16455 3.07255 2.21616 3.01464 2.27095 2.95952ZM1.77412 16.8437V4.96948L8.62588 10.9468L1.77759 16.9177C1.77412 16.8951 1.77412 16.8696 1.77412 16.8437ZM21.5322 18.537H3.46782C3.16113 18.537 2.87417 18.4563 2.62925 18.3147L9.85474 12.0179L10.5293 12.6047C11.0938 13.0952 11.8002 13.3436 12.5 13.3436C13.2034 13.3436 13.9098 13.0952 14.4742 12.6047L15.1484 12.0179L22.3711 18.3147C22.1258 18.4563 21.8389 18.537 21.5322 18.537ZM23.2259 16.8437C23.2259 16.8696 23.2259 16.8951 23.2226 16.9177L16.3743 10.9502L23.2259 4.97265V16.8437Z" fill="#4D7B9F"/>
</svg>
