<svg width="26" height="26" viewBox="0 0 26 26" fill="none" xmlns="http://www.w3.org/2000/svg">
<path d="M20.125 22.9722C19.8033 24.5571 18.4021 25.75 16.7222 25.75H4.22222C2.30457 25.75 0.75 24.1954 0.75 22.2778V12.5556C0.75 10.8757 1.94289 9.47451 3.52778 9.15279V7.69444C3.52778 3.85913 6.63691 0.75 10.4722 0.75C14.3075 0.75 17.4167 3.85913 17.4167 7.69444V9.15279C19.0016 9.47451 20.1944 10.8757 20.1944 12.5556V14.6389H22.2778C24.1954 14.6389 25.75 16.1935 25.75 18.1111V19.5C25.75 21.4177 24.1954 22.9722 22.2778 22.9722H20.125ZM18.687 22.9722H12.5556C10.6379 22.9722 9.08333 21.4177 9.08333 19.5V18.1111C9.08333 16.1935 10.6379 14.6389 12.5556 14.6389H18.8056V12.5556C18.8056 11.459 17.9584 10.5603 16.8828 10.4783C16.8313 10.4905 16.7775 10.497 16.7222 10.497C16.6583 10.497 16.5965 10.4884 16.5377 10.4722H4.22222C3.07163 10.4722 2.13889 11.405 2.13889 12.5556V22.2778C2.13889 23.4284 3.07163 24.3611 4.22222 24.3611H16.7222C17.6293 24.3611 18.401 23.7814 18.687 22.9722ZM4.91667 9.08333H16.0278V7.69444C16.0278 4.6262 13.5405 2.13889 10.4722 2.13889C7.40397 2.13889 4.91667 4.6262 4.91667 7.69444V9.08333ZM24.3611 19.5V18.1111C24.3611 16.9605 23.4284 16.0278 22.2778 16.0278H12.5556C11.405 16.0278 10.4722 16.9605 10.4722 18.1111V19.5C10.4722 20.6506 11.405 21.5833 12.5556 21.5833H22.2778C23.4284 21.5833 24.3611 20.6506 24.3611 19.5ZM12.5556 17.4167H13.9444C14.328 17.4167 14.6389 17.7276 14.6389 18.1111V19.5C14.6389 19.8835 14.328 20.1944 13.9444 20.1944H12.5556C12.172 20.1944 11.8611 19.8835 11.8611 19.5V18.1111C11.8611 17.7276 12.172 17.4167 12.5556 17.4167ZM16.7222 17.4167H18.1111C18.4946 17.4167 18.8056 17.7276 18.8056 18.1111V19.5C18.8056 19.8835 18.4946 20.1944 18.1111 20.1944H16.7222C16.3387 20.1944 16.0278 19.8835 16.0278 19.5V18.1111C16.0278 17.7276 16.3387 17.4167 16.7222 17.4167ZM20.8889 17.4167H22.2778C22.6613 17.4167 22.9722 17.7276 22.9722 18.1111V19.5C22.9722 19.8835 22.6613 20.1944 22.2778 20.1944H20.8889C20.5054 20.1944 20.1944 19.8835 20.1944 19.5V18.1111C20.1944 17.7276 20.5054 17.4167 20.8889 17.4167Z" fill="#4D7B9F"/>
</svg>
